<?xml version="1.0" encoding="UTF-8"?>
<svg width="512" height="512" viewBox="0 0 512 512" fill="none" xmlns="http://www.w3.org/2000/svg">
  <rect width="512" height="512" rx="86" fill="#3B82F6"/>
  <path d="M128 106h256c23.564 0 42.667 19.103 42.667 42.667v213.333c0 23.564-19.103 42.667-42.667 42.667H128c-23.564 0-42.667-19.103-42.667-42.667V148.667c0-23.564 19.103-42.667 42.667-42.667z" fill="white"/>
  <path d="M170.667 192h170.667v21.333H170.667V192zm0 64h170.667v21.333H170.667V256zm0 64h128v21.333h-128V320z" fill="#3B82F6"/>
  <circle cx="384" cy="192" r="10.667" fill="#10B981"/>
  <circle cx="384" cy="256" r="10.667" fill="#EF4444"/>
  <circle cx="384" cy="320" r="10.667" fill="#3B82F6"/>
</svg>
